<svg id="Layer_1" data-name="Layer 1" xmlns="http://www.w3.org/2000/svg" viewBox="0 0 321.02 321.02">
  <defs>
    <style>
      .cls-1{fill:#e0e0e0;}.cls-2{fill:#6c63ff;}
    </style>
  </defs>
  <rect class="cls-1" width="321.02" height="321.02" rx="35.83"/>
  <path class="cls-2" d="M303.26,194.49c-2.14,3.66-4.21,7.2-6.27,10.75q-10.67,18.42-21.31,36.84c-5.05,8.75-10.11,17.5-15.08,26.3a3.31,3.31,0,0,1-3.33,2q-47.94-.09-95.9,0h-1.9c1.26-3.61,2.46-7,3.65-10.44,2.66-7.68,5.29-15.38,8-23.06,3.56-10.13,7.19-20.23,10.75-30.36,3.47-9.85,6.88-19.71,10.33-29.56,2.07-5.92,4.19-11.84,6.25-17.77,2.41-6.92,4.76-13.86,7.18-20.77,2.1-6,4.29-12,6.37-18a1.74,1.74,0,0,1,1.93-1.38q22.22,0,44.44,0a1.94,1.94,0,0,1,1.92,1.23c5.75,10,11.55,20,17.31,30q7.52,13,15,26.06,4.86,8.43,9.76,16.84C302.66,193.68,303,194.18,303.26,194.49Zm-81-54.61c.53.94.85,1.53,1.19,2.12q14.7,25.45,29.43,50.87a2.94,2.94,0,0,1,0,3.44Q238,221.72,223.37,247.18c-.35.62-.68,1.25-1.09,2,.47.05.67.09.87.09,7.57,0,15.13,0,22.69,0,1,0,1.38-.52,1.79-1.24q15.12-26.22,30.26-52.42a1.85,1.85,0,0,0,0-2.15q-15.17-26.2-30.25-52.43a2.1,2.1,0,0,0-2.13-1.22c-6.13.05-12.25,0-18.38,0Z" transform="translate(-19.49 -19.49)"/>
  <path class="cls-2" d="M54.4,165.44c2.68-4.71,5.34-9.43,8.05-14.12,2.19-3.78,4.48-7.52,6.66-11.31,3.44-6,6.79-12,10.23-17.93,2.61-4.53,5.33-9,7.94-13.51,2.21-3.84,4.34-7.73,6.52-11.59,1.21-2.13,2.41-4.26,3.72-6.32a3.35,3.35,0,0,1,1.64-1,3.77,3.77,0,0,1,1.26,0h97.63c-1.55,4.43-3,8.64-4.5,12.85q-10.32,29.57-20.65,59.12Q164,187.17,155,212.7c-3.17,9-6.38,18-9.52,27.08a1.48,1.48,0,0,1-1.7,1.18q-22.22,0-44.43,0a2.21,2.21,0,0,1-2.17-1.36q-3.75-6.69-7.58-13.33c-2-3.47-4.06-6.91-6.07-10.38-2.79-4.84-5.54-9.7-8.33-14.54-2-3.51-4.13-7-6.16-10.5-2.74-4.74-5.43-9.51-8.16-14.26C58.75,172.86,56.56,169.14,54.4,165.44Zm81.16-54.8h-1.92c-7,0-14,0-20.94,0a2.69,2.69,0,0,0-2.74,1.57q-15,26-30,52a2.09,2.09,0,0,0,0,2.44q15.14,26.12,30.19,52.29a2.1,2.1,0,0,0,2.12,1.24c7.35-.05,14.7,0,22.05,0,.35,0,.7,0,1.2-.05-.27-.55-.45-.92-.65-1.28Q120,193.07,105.09,167.36a3.41,3.41,0,0,1,.06-4q14.8-25.47,29.5-51C134.93,111.85,135.18,111.34,135.56,110.64Z" transform="translate(-19.49 -19.49)"/>
</svg>
